{
  "accessors": [
    {
      "bufferView": 2,
      "componentType": 5126,
      "count": 65532,
      "max": [
        0.319381982088089,
        0.4818180501461029,
        0.33667394518852234
      ],
      "min": [
        -0.30695855617523193,
        0.007883846759796143,
        -0.3365025520324707
      ],
      "type": "VEC3"
    },
    {
      "bufferView": 2,
      "byteOffset": 786384,
      "componentType": 5126,
      "count": 65532,
      "max": [
        0.9999825954437256,
        0.9999998807907104,
        0.9999704957008362
      ],
      "min": [
        -0.9998126029968262,
        -0.99980229139328,
        -0.9999931454658508
      ],
      "type": "VEC3"
    },
    {
      "bufferView": 1,
      "componentType": 5126,
      "count": 65532,
      "max": [
        0.9976001381874084,
        0.997856616973877
      ],
      "min": [
        0.0021446943283081055,
        0.32820022106170654
      ],
      "type": "VEC2"
    },
    {
      "bufferView": 1,
      "byteOffset": 524256,
      "componentType": 5126,
      "count": 65532,
      "max": [
        0.9976001381874084,
        0.997856616973877
      ],
      "min": [
        0.0021446943283081055,
        0.32820022106170654
      ],
      "type": "VEC2"
    },
    {
      "bufferView": 1,
      "byteOffset": 1048512,
      "componentType": 5126,
      "count": 65532,
      "max": [
        0.9976001381874084,
        0.997856616973877
      ],
      "min": [
        0.0021446943283081055,
        0.32820022106170654
      ],
      "type": "VEC2"
    },
    {
      "bufferView": 1,
      "byteOffset": 1572768,
      "componentType": 5126,
      "count": 65532,
      "max": [
        0.9976001381874084,
        0.997856616973877
      ],
      "min": [
        0.0021446943283081055,
        0.32820022106170654
      ],
      "type": "VEC2"
    },
    {
      "bufferView": 1,
      "byteOffset": 2097024,
      "componentType": 5126,
      "count": 65532,
      "max": [
        0.9976001381874084,
        0.997856616973877
      ],
      "min": [
        0.0021446943283081055,
        0.32820022106170654
      ],
      "type": "VEC2"
    },
    {
      "bufferView": 1,
      "byteOffset": 2621280,
      "componentType": 5126,
      "count": 65532,
      "max": [
        0.9976001381874084,
        0.997856616973877
      ],
      "min": [
        0.0021446943283081055,
        0.32820022106170654
      ],
      "type": "VEC2"
    },
    {
      "bufferView": 1,
      "byteOffset": 3145536,
      "componentType": 5126,
      "count": 65532,
      "max": [
        0.9976001381874084,
        0.997856616973877
      ],
      "min": [
        0.0021446943283081055,
        0.32820022106170654
      ],
      "type": "VEC2"
    },
    {
      "bufferView": 1,
      "byteOffset": 3669792,
      "componentType": 5126,
      "count": 65532,
      "max": [
        0.9976001381874084,
        0.997856616973877
      ],
      "min": [
        0.0021446943283081055,
        0.32820022106170654
      ],
      "type": "VEC2"
    },
    {
      "bufferView": 1,
      "byteOffset": 4194048,
      "componentType": 5126,
      "count": 65532,
      "max": [
        0.9976001381874084,
        0.997856616973877
      ],
      "min": [
        0.0021446943283081055,
        0.32820022106170654
      ],
      "type": "VEC2"
    },
    {
      "bufferView": 1,
      "byteOffset": 4718304,
      "componentType": 5126,
      "count": 65532,
      "max": [
        0.9976001381874084,
        0.997856616973877
      ],
      "min": [
        0.0021446943283081055,
        0.32820022106170654
      ],
      "type": "VEC2"
    },
    {
      "bufferView": 0,
      "componentType": 5125,
      "count": 356361,
      "type": "SCALAR"
    },
    {
      "bufferView": 2,
      "byteOffset": 1572768,
      "componentType": 5126,
      "count": 25451,
      "max": [
        0.31899476051330566,
        0.4818131923675537,
        0.3275100290775299
      ],
      "min": [
        -0.3193984031677246,
        0.007595956325531006,
        -0.33657708764076233
      ],
      "type": "VEC3"
    },
    {
      "bufferView": 2,
      "byteOffset": 1878180,
      "componentType": 5126,
      "count": 25451,
      "max": [
        0.9999825954437256,
        0.9999998211860657,
        0.9999741315841675
      ],
      "min": [
        -0.9999591112136841,
        -0.99980229139328,
        -0.9999733567237854
      ],
      "type": "VEC3"
    },
    {
      "bufferView": 1,
      "byteOffset": 5242560,
      "componentType": 5126,
      "count": 25451,
      "max": [
        0.9917988777160645,
        0.8581709265708923
      ],
      "min": [
        0.06609146296977997,
        0.42495447397232056
      ],
      "type": "VEC2"
    },
    {
      "bufferView": 1,
      "byteOffset": 5446168,
      "componentType": 5126,
      "count": 25451,
      "max": [
        0.9917988777160645,
        0.8581709265708923
      ],
      "min": [
        0.06609146296977997,
        0.42495447397232056
      ],
      "type": "VEC2"
    },
    {
      "bufferView": 1,
      "byteOffset": 5649776,
      "componentType": 5126,
      "count": 25451,
      "max": [
        0.9917988777160645,
        0.8581709265708923
      ],
      "min": [
        0.06609146296977997,
        0.42495447397232056
      ],
      "type": "VEC2"
    },
    {
      "bufferView": 1,
      "byteOffset": 5853384,
      "componentType": 5126,
      "count": 25451,
      "max": [
        0.9917988777160645,
        0.8581709265708923
      ],
      "min": [
        0.06609146296977997,
        0.42495447397232056
      ],
      "type": "VEC2"
    },
    {
      "bufferView": 1,
      "byteOffset": 6056992,
      "componentType": 5126,
      "count": 25451,
      "max": [
        0.9917988777160645,
        0.8581709265708923
      ],
      "min": [
        0.06609146296977997,
        0.42495447397232056
      ],
      "type": "VEC2"
    },
    {
      "bufferView": 1,
      "byteOffset": 6260600,
      "componentType": 5126,
      "count": 25451,
      "max": [
        0.9917988777160645,
        0.8581709265708923
      ],
      "min": [
        0.06609146296977997,
        0.42495447397232056
      ],
      "type": "VEC2"
    },
    {
      "bufferView": 1,
      "byteOffset": 6464208,
      "componentType": 5126,
      "count": 25451,
      "max": [
        0.9917988777160645,
        0.8581709265708923
      ],
      "min": [
        0.06609146296977997,
        0.42495447397232056
      ],
      "type": "VEC2"
    },
    {
      "bufferView": 1,
      "byteOffset": 6667816,
      "componentType": 5126,
      "count": 25451,
      "max": [
        0.9917988777160645,
        0.8581709265708923
      ],
      "min": [
        0.06609146296977997,
        0.42495447397232056
      ],
      "type": "VEC2"
    },
    {
      "bufferView": 1,
      "byteOffset": 6871424,
      "componentType": 5126,
      "count": 25451,
      "max": [
        0.9917988777160645,
        0.8581709265708923
      ],
      "min": [
        0.06609146296977997,
        0.42495447397232056
      ],
      "type": "VEC2"
    },
    {
      "bufferView": 1,
      "byteOffset": 7075032,
      "componentType": 5126,
      "count": 25451,
      "max": [
        0.9917988777160645,
        0.8581709265708923
      ],
      "min": [
        0.06609146296977997,
        0.42495447397232056
      ],
      "type": "VEC2"
    },
    {
      "bufferView": 0,
      "byteOffset": 1425444,
      "componentType": 5125,
      "count": 136899,
      "type": "SCALAR"
    }
  ],
  "asset": {
    "extras": {
      "author": "JFN (https://sketchfab.com/db4)",
      "license": "CC-BY-4.0 (http://creativecommons.org/licenses/by/4.0/)",
      "source": "https://sketchfab.com/3d-models/chinese-wooden-stool-scaniverse-000d500df82b44d9879cd604d38ee87b",
      "title": "Chinese Wooden Stool (Scaniverse)"
    },
    "generator": "Sketchfab-16.7.0",
    "version": "2.0"
  },
  "bufferViews": [
    {
      "buffer": 0,
      "byteLength": 1973040,
      "name": "floatBufferViews",
      "target": 34963
    },
    {
      "buffer": 0,
      "byteLength": 7278640,
      "byteOffset": 1973040,
      "byteStride": 8,
      "name": "floatBufferViews",
      "target": 34962
    },
    {
      "buffer": 0,
      "byteLength": 2183592,
      "byteOffset": 9251680,
      "byteStride": 12,
      "name": "floatBufferViews",
      "target": 34962
    }
  ],
  "buffers": [
    {
      "byteLength": 11435272,
      "uri": "scene.bin"
    }
  ],
  "extensionsUsed": [
    "KHR_materials_unlit"
  ],
  "images": [
    {
      "uri": "textures/main_baseColor.jpeg"
    }
  ],
  "materials": [
    {
      "doubleSided": true,
      "extensions": {
        "KHR_materials_unlit": {}
      },
      "name": "main",
      "pbrMetallicRoughness": {
        "baseColorTexture": {
          "index": 0
        },
        "metallicFactor": 0.0
      }
    }
  ],
  "meshes": [
    {
      "name": "mesh_main_0",
      "primitives": [
        {
          "attributes": {
            "NORMAL": 1,
            "POSITION": 0,
            "TEXCOORD_0": 2,
            "TEXCOORD_1": 3,
            "TEXCOORD_2": 4,
            "TEXCOORD_3": 5,
            "TEXCOORD_4": 6,
            "TEXCOORD_5": 7,
            "TEXCOORD_6": 8,
            "TEXCOORD_7": 9,
            "TEXCOORD_8": 10,
            "TEXCOORD_9": 11
          },
          "indices": 12,
          "material": 0,
          "mode": 4
        }
      ]
    },
    {
      "name": "mesh_main_0",
      "primitives": [
        {
          "attributes": {
            "NORMAL": 14,
            "POSITION": 13,
            "TEXCOORD_0": 15,
            "TEXCOORD_1": 16,
            "TEXCOORD_2": 17,
            "TEXCOORD_3": 18,
            "TEXCOORD_4": 19,
            "TEXCOORD_5": 20,
            "TEXCOORD_6": 21,
            "TEXCOORD_7": 22,
            "TEXCOORD_8": 23,
            "TEXCOORD_9": 24
          },
          "indices": 25,
          "material": 0,
          "mode": 4
        }
      ]
    }
  ],
  "nodes": [
    {
      "children": [
        1
      ],
      "matrix": [
        1.0,
        0.0,
        0.0,
        0.0,
        0.0,
        2.220446049250313e-16,
        -1.0,
        0.0,
        0.0,
        1.0,
        2.220446049250313e-16,
        0.0,
        0.0,
        0.0,
        0.0,
        1.0
      ],
      "name": "Sketchfab_model"
    },
    {
      "children": [
        2
      ],
      "matrix": [
        1.0,
        0.0,
        0.0,
        0.0,
        0.0,
        0.0,
        1.0,
        0.0,
        0.0,
        -1.0,
        0.0,
        0.0,
        0.0,
        0.0,
        0.0,
        1.0
      ],
      "name": "026120e015864d42a2c5f6e956b1f017.fbx"
    },
    {
      "children": [
        3
      ],
      "name": "RootNode"
    },
    {
      "children": [
        4,
        5
      ],
      "name": "mesh"
    },
    {
      "mesh": 0,
      "name": "mesh_main_0"
    },
    {
      "mesh": 1,
      "name": "mesh_main_0"
    }
  ],
  "samplers": [
    {
      "magFilter": 9729,
      "minFilter": 9987,
      "wrapS": 10497,
      "wrapT": 10497
    }
  ],
  "scene": 0,
  "scenes": [
    {
      "name": "Sketchfab_Scene",
      "nodes": [
        0
      ]
    }
  ],
  "textures": [
    {
      "sampler": 0,
      "source": 0
    }
  ]
}
